<?xml version="1.0" encoding="utf-8"?>
<!-- Generator: Adobe Illustrator 17.0.0, SVG Export Plug-In . SVG Version: 6.00 Build 0)  -->
<!DOCTYPE svg PUBLIC "-//W3C//DTD SVG 1.1//EN" "http://www.w3.org/Graphics/SVG/1.1/DTD/svg11.dtd">
<svg version="1.1" id="Слой_1" xmlns="http://www.w3.org/2000/svg" xmlns:xlink="http://www.w3.org/1999/xlink" x="0px" y="0px"
	 width="213.387px" height="40px" viewBox="0 0 213.387 40" enable-background="new 0 0 213.387 40" xml:space="preserve">
<g>
	<path fill="#005FA3" d="M73.996,11.276l-2.7-0.504v-2.52h5.688c0.816,0,1.896-0.048,3.24-0.144c0.288-0.024,0.648-0.048,1.08-0.072
		S82.24,8,82.816,8c2.616,0,4.668,0.24,6.156,0.72c1.488,0.48,2.52,1.164,3.096,2.052c0.6,0.888,0.9,2.004,0.9,3.348
		c0,1.8-0.564,3.288-1.692,4.464c-1.104,1.176-2.52,1.884-4.248,2.124c2.4,0,4.284,0.54,5.652,1.62
		c1.392,1.08,2.088,2.604,2.088,4.572c0,2.568-0.888,4.596-2.664,6.084c-1.752,1.488-4.74,2.232-8.964,2.232
		c-0.672,0-1.32-0.024-1.944-0.072c-0.624-0.024-1.068-0.036-1.332-0.036C79,35.036,78.064,35,77.056,35h-5.832v-2.376l2.772-0.396
		V11.276z M80.08,19.808c0.432,0.048,1.404,0.072,2.916,0.072c1.32,0,2.292-0.444,2.916-1.332c0.624-0.912,0.936-2.184,0.936-3.816
		c0-1.512-0.336-2.616-1.008-3.312c-0.672-0.696-1.764-1.044-3.276-1.044c-0.36,0-0.78,0.024-1.26,0.072
		c-0.48,0.024-0.888,0.06-1.224,0.108C80.08,10.556,80.08,19.808,80.08,19.808z M80.08,32.444c0.48,0.192,1.428,0.288,2.844,0.288
		c1.776,0,3.06-0.468,3.852-1.404C87.592,30.392,88,29.036,88,27.26c0-1.68-0.372-2.88-1.116-3.6c-0.744-0.72-1.92-1.08-3.528-1.08
		c-1.32,0-2.412,0.024-3.276,0.072V32.444z M113.553,35.36c-0.864,0-1.488-0.18-1.872-0.54c-0.384-0.384-0.576-0.936-0.576-1.656
		v-0.792c-0.576,0.792-1.44,1.5-2.592,2.124c-1.152,0.6-2.316,0.9-3.492,0.9c-2.352,0-4.032-0.576-5.04-1.728
		c-0.984-1.176-1.476-3.132-1.476-5.868V17.792l-1.692-0.468V15.02l6.768-0.468h0.036l0.792,0.504v12.888
		c0,1.56,0.192,2.652,0.576,3.276c0.384,0.6,1.068,0.9,2.052,0.9c1.344,0,2.472-0.456,3.384-1.368v-12.96l-2.232-0.54V15.02
		l7.128-0.468h0.108l0.864,0.504v17.46h1.908v2.304c-0.816,0.168-1.572,0.3-2.268,0.396C115.257,35.312,114.465,35.36,113.553,35.36
		z M122.105,9.008l-2.556-0.468V6.344l7.236-0.864h0.108l1.044,0.756l0.036,7.812l-0.288,3.204c0.744-0.696,1.728-1.308,2.952-1.836
		c1.224-0.552,2.568-0.828,4.032-0.828c1.512,0,2.688,0.276,3.528,0.828s1.428,1.392,1.764,2.52c0.336,1.128,0.504,2.628,0.504,4.5
		V32.3l2.196,0.324V35h-10.008v-2.376l1.908-0.324v-9.828c0-1.68-0.18-2.844-0.54-3.492c-0.36-0.672-1.092-1.008-2.196-1.008
		c-0.672,0-1.344,0.156-2.016,0.468c-0.672,0.288-1.236,0.648-1.692,1.08V32.3l1.98,0.324V35h-9.864v-2.376l1.872-0.324
		L122.105,9.008L122.105,9.008z M156.188,35.396c-4.032,0-7.02-1.212-8.964-3.636c-1.944-2.448-2.916-5.808-2.916-10.08
		c0-2.76,0.504-5.172,1.512-7.236c1.032-2.088,2.472-3.696,4.32-4.824s4.008-1.692,6.48-1.692c4.128,0,7.164,1.152,9.108,3.456
		c1.968,2.28,2.952,5.544,2.952,9.792c0,2.808-0.516,5.292-1.548,7.452c-1.032,2.136-2.496,3.804-4.392,5.004
		C160.868,34.808,158.684,35.396,156.188,35.396z M156.512,10.304c-1.728,0-3.072,0.948-4.032,2.844
		c-0.936,1.896-1.404,4.728-1.404,8.496c0,3.84,0.468,6.696,1.404,8.568c0.936,1.848,2.268,2.772,3.996,2.772
		c1.704,0,3.024-1.008,3.96-3.024c0.96-2.04,1.44-4.956,1.44-8.748c0-3.84-0.456-6.612-1.368-8.316
		C159.596,11.168,158.264,10.304,156.512,10.304z M173.196,18.764l-2.124-0.648v-2.808l6.552-0.792h0.108l0.936,0.756v1.332
		l-0.036,0.828c0.84-0.792,1.908-1.464,3.204-2.016s2.652-0.828,4.068-0.828c1.44,0,2.568,0.264,3.384,0.792
		c0.84,0.504,1.44,1.32,1.8,2.448c0.384,1.128,0.576,2.664,0.576,4.608V32.3l2.016,0.288V35h-9.792v-2.376l1.764-0.324v-9.828
		c0-1.152-0.084-2.04-0.252-2.664c-0.144-0.648-0.408-1.116-0.792-1.404s-0.936-0.432-1.656-0.432c-1.104,0-2.352,0.516-3.744,1.548
		V32.3l1.98,0.324V35h-9.972v-2.376l1.98-0.324L173.196,18.764L173.196,18.764z M205.359,35.396c-3.288,0-5.724-0.924-7.308-2.772
		c-1.584-1.872-2.376-4.416-2.376-7.632c0-2.184,0.408-4.068,1.224-5.652s1.956-2.784,3.42-3.6c1.488-0.84,3.228-1.26,5.22-1.26
		c2.52,0,4.44,0.636,5.76,1.908c1.344,1.272,2.04,3.072,2.088,5.4c0,1.536-0.108,2.772-0.324,3.708h-11.268
		c0.12,2.04,0.612,3.6,1.476,4.68c0.888,1.056,2.124,1.584,3.708,1.584c0.888,0,1.812-0.144,2.772-0.432
		c0.984-0.312,1.776-0.66,2.376-1.044l1.008,2.196c-0.624,0.696-1.692,1.356-3.204,1.98
		C208.443,35.084,206.919,35.396,205.359,35.396z M207.663,23.12l0.036-1.512c0-1.512-0.204-2.664-0.612-3.456
		s-1.104-1.188-2.088-1.188c-1.008,0-1.788,0.444-2.34,1.332c-0.552,0.864-0.852,2.472-0.9,4.824
		C201.759,23.12,207.663,23.12,207.663,23.12z"/>
	<g>
		<g>
			<g>
				<defs>
					<rect id="SVGID_1_" width="40" height="40"/>
				</defs>
				<clipPath id="SVGID_2_">
					<use xlink:href="#SVGID_1_"  overflow="visible"/>
				</clipPath>
				<g clip-path="url(#SVGID_2_)">
					<path fill="#FFFAF7" d="M32.584,4.45c-0.023-0.023-0.07-0.046-0.093-0.093C32.514,4.403,32.561,4.426,32.584,4.45z"/>
					<path fill="#FFFAF7" d="M32.144,4.102c0.116,0.093,0.232,0.185,0.348,0.255C32.375,4.287,32.26,4.195,32.144,4.102
						c-0.023-0.023-0.069-0.046-0.093-0.07l-0.046-0.023l0.046,0.023C32.074,4.056,32.12,4.079,32.144,4.102z"/>
					<path fill="#FFFAF7" d="M31.958,3.963l-0.07-0.046L31.958,3.963z"/>
					<path fill="#FFFAF7" d="M31.703,3.778c0.023,0.023,0.023,0.023,0.046,0.046C31.75,3.801,31.726,3.801,31.703,3.778
						l-0.046-0.023L31.703,3.778z"/>
					<path fill="#FFFAF7" d="M31.68,3.754c-0.046-0.023-0.069-0.046-0.093-0.07C31.611,3.708,31.634,3.731,31.68,3.754z"/>
					<path fill="#FFFAF7" d="M31.263,3.476c-0.046-0.023-0.069-0.046-0.116-0.07C31.194,3.43,31.24,3.453,31.263,3.476z"/>
					<path fill="#FFFAF7" d="M23.291,0.278c-0.07-0.023-0.162-0.023-0.232-0.046c-0.046,0-0.069,0-0.116-0.023
						c0.046,0,0.07,0,0.116,0.023C23.129,0.232,23.221,0.255,23.291,0.278z"/>
					<path fill="#FFFAF7" d="M28.459,1.877c-0.209-0.093-0.394-0.185-0.579-0.255C28.088,1.692,28.274,1.784,28.459,1.877z"/>
					<path fill="#FFFAF7" d="M30.776,3.152c0.046,0.023,0.093,0.046,0.116,0.07C30.869,3.198,30.823,3.175,30.776,3.152z"/>
					<path fill="#FFFAF7" d="M26.072,0.927c-0.046-0.023-0.093-0.023-0.139-0.046s-0.093-0.023-0.139-0.046
						c0.046,0.023,0.093,0.023,0.139,0.046C25.956,0.904,26.002,0.927,26.072,0.927z"/>
					<path fill="#FFFAF7" d="M25.307,0.718c-0.023-0.023-0.046-0.023-0.07-0.023h-0.023h0.023
						C25.261,0.695,25.284,0.695,25.307,0.718z"/>
					<path fill="#FFFAF7" d="M27.74,1.553c0.069,0.023,0.116,0.046,0.139,0.07C27.833,1.599,27.81,1.576,27.74,1.553z"/>
					<path fill="#FFFAF7" d="M30.267,2.827l0.093,0.07c0.069,0.046,0.139,0.07,0.185,0.116c-0.069-0.046-0.116-0.07-0.185-0.116
						L30.267,2.827c-0.023,0-0.023-0.023-0.046-0.023C30.243,2.827,30.243,2.827,30.267,2.827z"/>
					<path fill="#FFFAF7" d="M32.746,4.589c-0.046-0.046-0.093-0.07-0.139-0.116C32.653,4.519,32.7,4.542,32.746,4.589z"/>
					<path fill="#FFFAF7" d="M29.988,2.665c0.046,0.023,0.093,0.046,0.139,0.07C30.081,2.711,30.035,2.688,29.988,2.665
						l-0.023-0.023c-0.023,0-0.023-0.023-0.046-0.023c0.023,0,0.023,0.023,0.046,0.023L29.988,2.665z"/>
					<path fill="#FFFAF7" d="M28.505,1.9l0.162,0.093c0.069,0.023,0.139,0.07,0.185,0.093c-0.069-0.023-0.139-0.07-0.185-0.093
						L28.505,1.9C28.505,1.877,28.505,1.9,28.505,1.9S28.505,1.877,28.505,1.9z"/>
					<path fill="#FFFAF7" d="M27.022,1.275c0.139,0.046,0.301,0.116,0.487,0.185c0.023,0,0.023,0,0.046,0.023
						c-0.023,0-0.023,0-0.046-0.023C27.323,1.39,27.161,1.321,27.022,1.275l-0.093-0.023h-0.023h0.023L27.022,1.275z"/>
					<path fill="#FFFAF7" d="M0.209,17.103c0-0.023,0-0.069,0.023-0.093v-0.023v0.023C0.209,17.034,0.209,17.057,0.209,17.103z"/>
					<path fill="#FFFAF7" d="M0.116,17.775c0-0.023,0-0.046,0-0.069C0.139,17.729,0.116,17.752,0.116,17.775z"/>
					<path fill="#FFFAF7" d="M0.046,18.54v-0.023C0.046,18.517,0.046,18.517,0.046,18.54c0,0.069-0.023,0.162-0.023,0.232
						C0.046,18.679,0.046,18.61,0.046,18.54z"/>
					<path fill="#FFFAF7" d="M10.452,26.721c0,0.023,0.023,0.046,0.023,0.046C10.452,26.767,10.452,26.744,10.452,26.721z"/>
					<path fill="#FFFAF7" d="M20.742,0.023c0.44,0.023,0.904,0.046,1.344,0.093C21.645,0.069,21.205,0.023,20.742,0.023z"/>
					<path fill="#FFFAF7" d="M24.195,0.44c0.139,0.023,0.255,0.046,0.371,0.093C24.45,0.487,24.311,0.463,24.195,0.44z"/>
					<path fill="#FFFAF7" d="M28.899,2.086c0.301,0.139,0.579,0.301,0.857,0.463C29.479,2.387,29.2,2.225,28.899,2.086z"/>
					<path fill="#FFFAF7" d="M33.024,4.82c-0.046-0.023-0.069-0.07-0.116-0.093l-0.07-0.07l0.07,0.07
						C32.955,4.751,33.001,4.797,33.024,4.82z"/>
					<path fill="#FFFAF7" d="M13.465,8.714c1.715-1.831,3.801-3.268,6.165-4.171c0.718-0.278,1.437-0.51,2.178-0.672
						c-0.742,0.185-1.46,0.394-2.178,0.672C17.242,5.469,15.156,6.883,13.465,8.714z"/>
					<path fill="#FFFAF7" d="M17.01,34.183c-1.97-1.182-3.685-2.781-5.029-4.704c-0.487-0.695-0.904-1.414-1.275-2.179
						c0.371,0.742,0.788,1.483,1.275,2.179C13.326,31.379,15.041,32.978,17.01,34.183z"/>
					<path fill="#FFFAF7" d="M4.287,30.267C1.576,27.578,0.07,24.009,0,20.208v-0.046v-0.07c0-0.023,0-0.046,0-0.046
						c0,0.023,0,0.046,0,0.046c0,0.023,0,0.046,0,0.07v0.046C0.07,24.009,1.576,27.578,4.287,30.267
						c2.711,2.665,6.304,4.148,10.127,4.148c0.603,0,1.205-0.046,1.808-0.116c-0.603,0.07-1.205,0.116-1.808,0.116
						C10.591,34.415,6.999,32.932,4.287,30.267z"/>
					<path fill="#FFFAF7" d="M33.465,5.214c0.046,0.046,0.069,0.07,0.116,0.093C33.557,5.284,33.511,5.261,33.465,5.214
						l-0.046-0.046l-0.023-0.023l0.023,0.023L33.465,5.214z"/>
					<path fill="#FFFAF7" d="M34.021,5.724c-0.023-0.023-0.046-0.046-0.07-0.07c-0.023-0.023-0.069-0.07-0.093-0.093
						c0.023,0.023,0.07,0.07,0.093,0.093C33.951,5.678,33.998,5.701,34.021,5.724z"/>
					<path fill="#FFFAF7" d="M33.72,5.446c-0.024-0.023-0.07-0.046-0.093-0.093C33.65,5.377,33.673,5.423,33.72,5.446z"/>
					<path fill="#005FA3" d="M0.232,16.941v0.046c0,0.023,0,0.07-0.023,0.093v0.023c0,0.023,0,0.046,0,0.069v0.046v0.023v0.023
						v0.023c0,0.069-0.023,0.139-0.023,0.209s-0.023,0.116-0.023,0.185c0,0.023,0,0.046,0,0.069c0,0.069-0.023,0.139-0.023,0.209
						c0,0.046,0,0.116-0.023,0.162v0.046c0,0.023,0,0.046,0,0.069s0,0.046,0,0.069s0,0.023,0,0.046c0,0.023,0,0.023,0,0.046
						c0,0.023,0,0.046,0,0.069v0.023c0,0.069-0.023,0.162-0.023,0.232c0,0.046,0,0.069,0,0.116c0,0.046,0,0.07,0,0.116
						c0,0,0,0,0,0.023v0.023v0.023v0.023c0,0.046,0,0.093,0,0.139c0,0.023,0,0.046,0,0.046c0,0.093,0,0.162,0,0.232
						c0,0.023,0,0.023,0,0.046v0.023c0,0.069,0,0.139,0,0.185v0.046v0.023v0.069C0,19.931,0,19.931,0,19.954C0,19.977,0,19.977,0,20
						s0,0.023,0,0.046c0,0.023,0,0.046,0,0.046v0.07v0.046c0.046,3.801,1.576,7.37,4.287,10.035s6.304,4.148,10.127,4.148
						c0.603,0,1.205-0.046,1.808-0.116c0.278-0.023,0.533-0.07,0.811-0.116c-1.97-1.182-3.685-2.781-5.029-4.705
						c-0.487-0.695-0.904-1.414-1.275-2.179c-0.093-0.162-0.162-0.348-0.232-0.51c0-0.023-0.023-0.046-0.023-0.046
						C9.548,24.612,9.061,22.341,9.061,20c0-3.407,1.02-6.674,2.966-9.479c0.44-0.649,0.927-1.251,1.46-1.808
						c1.715-1.831,3.801-3.268,6.165-4.171c0.718-0.278,1.437-0.51,2.178-0.672c1.228-0.301,2.503-0.44,3.801-0.44
						c3.013,0,5.91,0.811,8.436,2.294c-0.023-0.023-0.046-0.046-0.069-0.07c-0.023-0.023-0.069-0.07-0.093-0.093l-0.023-0.023
						c-0.023-0.023-0.069-0.046-0.093-0.093C33.766,5.423,33.72,5.4,33.696,5.353c0,0,0,0-0.023-0.023
						c-0.046-0.023-0.069-0.07-0.116-0.093l-0.046-0.046l-0.023-0.023c-0.046-0.046-0.093-0.093-0.162-0.139
						S33.21,4.936,33.163,4.89c-0.023-0.023-0.046-0.023-0.046-0.046c-0.046-0.023-0.069-0.07-0.116-0.093l-0.07-0.07l-0.046-0.046
						l-0.023-0.023l-0.023-0.023c-0.046-0.046-0.093-0.07-0.139-0.116c-0.023-0.023-0.07-0.047-0.093-0.093
						c-0.116-0.093-0.232-0.185-0.325-0.255c-0.023-0.023-0.069-0.046-0.093-0.07l-0.046-0.023L32.12,4.009c0,0,0,0-0.023,0
						l-0.069-0.046L32.005,3.94l-0.093-0.07l-0.023-0.023c-0.023-0.023-0.023-0.023-0.046-0.046L31.82,3.778
						c-0.023-0.023-0.069-0.046-0.093-0.07l-0.023-0.023c-0.093-0.07-0.162-0.116-0.255-0.185c-0.046-0.023-0.069-0.046-0.116-0.07
						L31.31,3.407c-0.046-0.046-0.116-0.07-0.162-0.116c-0.023,0-0.023-0.023-0.046-0.023c-0.046-0.023-0.093-0.046-0.116-0.07
						c-0.069-0.046-0.116-0.07-0.185-0.116s-0.116-0.07-0.185-0.116l-0.093-0.07c-0.023,0-0.023-0.023-0.046-0.023
						c-0.023,0-0.046-0.023-0.069-0.023s-0.023-0.023-0.046-0.023c-0.046-0.023-0.093-0.046-0.139-0.07L30.2,2.734
						c-0.023,0-0.023-0.023-0.046-0.023c-0.046-0.023-0.093-0.046-0.116-0.07c0,0,0,0-0.023,0c-0.278-0.162-0.579-0.301-0.858-0.464
						h-0.023c-0.069-0.023-0.139-0.07-0.185-0.093L28.505,1.9c0,0,0,0-0.023,0c-0.208-0.093-0.394-0.185-0.579-0.255
						c-0.046-0.023-0.093-0.046-0.139-0.046H27.74h-0.023l-0.07-0.023c-0.023,0-0.046-0.023-0.093-0.023
						c-0.023,0-0.023,0-0.046-0.023c-0.185-0.07-0.348-0.139-0.487-0.185l-0.093-0.023h-0.023l-0.093-0.023
						c-0.255-0.093-0.487-0.185-0.765-0.255c0,0,0,0-0.023,0c-0.046-0.023-0.093-0.023-0.139-0.046s-0.093-0.023-0.139-0.046
						c-0.023,0-0.069-0.023-0.093-0.023c-0.116-0.023-0.209-0.07-0.324-0.093c-0.023,0-0.023,0-0.046,0
						c0-0.139-0.023-0.139-0.046-0.139h-0.023h-0.023c-0.209-0.046-0.417-0.116-0.649-0.162c-0.116-0.023-0.255-0.046-0.371-0.093
						c-0.209-0.046-0.44-0.093-0.649-0.139C23.453,0.28,23.36,0.28,23.29,0.257c-0.069-0.023-0.162-0.023-0.232-0.046
						c-0.046,0-0.069,0-0.116-0.023c-0.046,0-0.093-0.023-0.139-0.023c-0.232-0.023-0.463-0.07-0.695-0.093
						c-0.44-0.046-0.904-0.07-1.344-0.093C20.51,0,20.255,0,20,0c-0.417,0-0.858,0.023-1.275,0.046c-0.046,0-0.093,0-0.139,0
						c-0.463,0.023-0.927,0.07-1.39,0.139c-0.093,0.023-0.162,0.023-0.255,0.046L0.232,16.941z"/>
					<path fill="#222222" d="M39.768,23.036v-0.023c0-0.023,0-0.046,0.023-0.093v-0.023c0-0.046,0.023-0.07,0.023-0.116v-0.023
						v-0.023c0-0.023,0-0.023,0-0.023l0.023-0.116l0.023-0.093c0-0.093,0.023-0.162,0.023-0.232c0-0.069,0.023-0.139,0.023-0.208
						c0-0.07,0.023-0.116,0.023-0.162v-0.046c0-0.046,0-0.069,0-0.116v-0.023v-0.023c0-0.046,0-0.093,0.023-0.162v-0.023
						c0-0.07,0.023-0.139,0.023-0.232c0-0.069,0-0.162,0.023-0.232V21.02v-0.023v-0.023c0-0.07,0-0.139,0-0.185
						c0-0.093,0-0.162,0-0.255v-0.046c0-0.07,0-0.116,0-0.185v-0.139c0-0.046,0-0.093,0-0.162c0-0.046,0-0.116,0-0.162v-0.046
						c-0.046-3.801-1.576-7.37-4.287-10.035c-2.712-2.665-6.304-4.148-10.127-4.148c-0.881,0-1.761,0.07-2.596,0.232
						c1.97,1.182,3.685,2.781,5.029,4.705c1.947,2.781,2.966,6.049,2.966,9.479c0,3.407-1.02,6.674-2.966,9.479
						c-1.9,2.712-4.542,4.797-7.625,5.979c-1.9,0.742-3.917,1.112-5.979,1.112c-3.013,0-5.91-0.811-8.436-2.294H6
						c0.023,0.023,0.023,0.023,0.046,0.046l0.046,0.046c0.023,0.023,0.07,0.07,0.093,0.093c0.046,0.046,0.116,0.116,0.185,0.162
						c0.046,0.046,0.093,0.069,0.116,0.116c0.07,0.069,0.139,0.139,0.232,0.208c0.046,0.046,0.093,0.093,0.139,0.139l0.023,0.023
						l0.139,0.116l0.023,0.023c0.046,0.023,0.07,0.069,0.116,0.093l0.023,0.023l0.023,0.023c0.023,0.023,0.07,0.069,0.116,0.093
						h0.023H7.37c0.023,0.023,0.07,0.046,0.093,0.07c0.116,0.093,0.209,0.162,0.324,0.255c0.023,0.023,0.046,0.046,0.07,0.046
						c0.023,0.023,0.046,0.046,0.093,0.07c0.023,0.023,0.023,0.023,0.046,0.023l0.023,0.023c0.046,0.023,0.093,0.069,0.139,0.093
						l0.046,0.023c0.023,0.023,0.046,0.023,0.07,0.046c0.023,0.023,0.07,0.046,0.093,0.07l0.046,0.023
						c0.093,0.07,0.162,0.116,0.255,0.185c0.046,0.023,0.07,0.046,0.116,0.07l0.023,0.023l0.093,0.07l0.093,0.069
						c0.046,0.023,0.093,0.069,0.162,0.093c0.046,0.023,0.116,0.069,0.162,0.093h0.185l0.232,0.209
						c0.023,0.023,0.07,0.046,0.116,0.069c0.07,0.046,0.139,0.093,0.209,0.116c0.046,0.023,0.116,0.069,0.162,0.093
						c0.301,0.162,0.603,0.324,0.904,0.464c0.069,0.023,0.139,0.069,0.209,0.093c0,0,0.023,0,0.023,0.023
						c0.07,0.023,0.116,0.07,0.185,0.093c0.185,0.093,0.371,0.185,0.579,0.255c0.046,0.023,0.093,0.046,0.139,0.069
						c0.023,0,0.023,0.023,0.046,0.023c0.069,0.023,0.116,0.046,0.185,0.069c0.162,0.069,0.324,0.116,0.487,0.185
						c0.046,0.023,0.116,0.046,0.162,0.069c0.255,0.093,0.51,0.185,0.742,0.255c0.046,0.023,0.093,0.023,0.139,0.046
						c0.07,0.023,0.139,0.046,0.232,0.069l0.069,0.023c0.093,0.023,0.185,0.046,0.255,0.069c0.046,0.023,0.093,0.023,0.139,0.046
						c0.556,0.139,1.112,0.278,1.669,0.371c0.069,0.023,0.139,0.023,0.232,0.046c0.093,0.023,0.162,0.023,0.232,0.046
						c0.069,0.023,0.162,0.023,0.232,0.023c0.927,0.139,1.854,0.185,2.804,0.185c0.927,0,1.877-0.069,2.804-0.185h0.023
						c0.069,0,0.139-0.023,0.232-0.023l16.709-16.709C39.768,23.036,39.768,23.036,39.768,23.036z"/>
				</g>
			</g>
		</g>
	</g>
</g>
</svg>
