<?xml version="1.0" encoding="utf-8"?>
<!-- Generator: Adobe Illustrator 17.0.0, SVG Export Plug-In . SVG Version: 6.00 Build 0)  -->
<!DOCTYPE svg PUBLIC "-//W3C//DTD SVG 1.1//EN" "http://www.w3.org/Graphics/SVG/1.1/DTD/svg11.dtd">
<svg version="1.1" id="Слой_1" xmlns="http://www.w3.org/2000/svg" xmlns:xlink="http://www.w3.org/1999/xlink" x="0px" y="0px"
	 width="22.339px" height="17px" viewBox="0 0 22.339 17" enable-background="new 0 0 22.339 17" xml:space="preserve">
<path fill="#005FA3" d="M19.611,0H2.732C1.225,0,0,1.225,0,2.732v11.537C0,15.775,1.225,17,2.732,17h16.875
	c1.507,0,2.732-1.225,2.732-2.732V2.736C22.343,1.229,21.118,0,19.611,0z M21.095,14.268c0,0.818-0.666,1.484-1.484,1.484H2.732
	c-0.818,0-1.484-0.665-1.484-1.484V2.736c0-0.818,0.666-1.484,1.484-1.484h16.875c0.818,0,1.484,0.666,1.484,1.484v11.532H21.095z"
	/>
<path fill="#005FA3" d="M14.088,8.357l5.463-4.899c0.254-0.231,0.277-0.624,0.046-0.883c-0.231-0.254-0.624-0.277-0.883-0.046
	L11.181,9.29l-1.47-1.313C9.706,7.973,9.702,7.968,9.702,7.964C9.669,7.931,9.637,7.904,9.6,7.876L3.619,2.524
	C3.36,2.293,2.967,2.316,2.736,2.575C2.505,2.833,2.528,3.226,2.787,3.457l5.528,4.941L2.81,13.552
	c-0.25,0.236-0.263,0.629-0.028,0.883c0.125,0.129,0.291,0.199,0.458,0.199c0.153,0,0.305-0.055,0.425-0.166L9.253,9.24l1.516,1.354
	c0.12,0.106,0.268,0.157,0.416,0.157s0.3-0.056,0.416-0.162l1.558-1.396l5.556,5.278c0.12,0.116,0.277,0.171,0.43,0.171
	c0.166,0,0.328-0.065,0.453-0.194c0.236-0.25,0.226-0.647-0.023-0.883L14.088,8.357z"/>
</svg>
