<?xml version="1.0" encoding="utf-8"?>
<!-- Generator: Adobe Illustrator 17.0.0, SVG Export Plug-In . SVG Version: 6.00 Build 0)  -->
<!DOCTYPE svg PUBLIC "-//W3C//DTD SVG 1.1//EN" "http://www.w3.org/Graphics/SVG/1.1/DTD/svg11.dtd">
<svg version="1.1" id="Слой_1" xmlns="http://www.w3.org/2000/svg" xmlns:xlink="http://www.w3.org/1999/xlink" x="0px" y="0px"
	 width="12.461px" height="17px" viewBox="2.258 0 12.461 17" enable-background="new 2.258 0 12.461 17" xml:space="preserve">
<path fill="#005FA3" d="M8.488,0c-3.435,0-6.23,2.795-6.23,6.23c0,1.578,0.994,3.808,2.956,6.628
	c1.434,2.061,2.844,3.656,2.903,3.723L8.488,17l0.372-0.419c0.059-0.067,1.469-1.662,2.903-3.723
	c1.961-2.819,2.956-5.049,2.956-6.628C14.719,2.795,11.924,0,8.488,0z M10.953,12.282c-0.969,1.394-1.948,2.594-2.464,3.206
	c-0.515-0.61-1.49-1.806-2.459-3.198C4.212,9.678,3.252,7.582,3.252,6.23c0-2.887,2.349-5.236,5.237-5.236
	c2.887,0,5.236,2.349,5.236,5.236C13.725,7.581,12.766,9.674,10.953,12.282z"/>
<path fill="#005FA3" d="M8.488,2.303c-2.028,0-3.677,1.65-3.677,3.677s1.65,3.677,3.677,3.677c2.028,0,3.677-1.65,3.677-3.677
	S10.516,2.303,8.488,2.303z M8.488,8.663c-1.479,0-2.683-1.204-2.683-2.683c0-1.479,1.204-2.683,2.683-2.683
	c1.48,0,2.683,1.204,2.683,2.683C11.172,7.459,9.968,8.663,8.488,8.663z"/>
</svg>
