<?xml version="1.0" encoding="utf-8"?><svg xmlns="http://www.w3.org/2000/svg" xmlns:xlink="http://www.w3.org/1999/xlink"><symbol viewBox="2.258 0 12.461 17" xml:space="preserve" id="icon-local" xmlns="http://www.w3.org/2000/svg"><path d="M8.488 0a6.237 6.237 0 0 0-6.23 6.23c0 1.578.994 3.808 2.956 6.628 1.434 2.061 2.844 3.656 2.903 3.723l.371.419.372-.419c.059-.067 1.469-1.662 2.903-3.723 1.961-2.819 2.956-5.049 2.956-6.628A6.238 6.238 0 0 0 8.488 0zm2.465 12.282a45.18 45.18 0 0 1-2.464 3.206A45.19 45.19 0 0 1 6.03 12.29C4.212 9.678 3.252 7.582 3.252 6.23A5.242 5.242 0 0 1 8.489.994a5.242 5.242 0 0 1 5.236 5.236c0 1.351-.959 3.444-2.772 6.052z"/><path d="M8.488 2.303c-2.028 0-3.677 1.65-3.677 3.677s1.65 3.677 3.677 3.677c2.028 0 3.677-1.65 3.677-3.677s-1.649-3.677-3.677-3.677zm0 6.36A2.687 2.687 0 0 1 5.805 5.98a2.687 2.687 0 0 1 2.683-2.683 2.686 2.686 0 0 1 2.683 2.683 2.685 2.685 0 0 1-2.683 2.683z"/></symbol><symbol xml:space="preserve" viewBox="0 0 22.339 17" id="icon-mail" xmlns="http://www.w3.org/2000/svg"><path d="M19.611 0H2.732A2.734 2.734 0 0 0 0 2.732v11.537A2.734 2.734 0 0 0 2.732 17h16.875a2.734 2.734 0 0 0 2.732-2.732V2.736A2.732 2.732 0 0 0 19.611 0zm1.484 14.268c0 .818-.666 1.484-1.484 1.484H2.732a1.485 1.485 0 0 1-1.484-1.484V2.736c0-.818.666-1.484 1.484-1.484h16.875c.818 0 1.484.666 1.484 1.484v11.532h.004z"/><path d="m14.088 8.357 5.463-4.899a.628.628 0 0 0 .046-.883.628.628 0 0 0-.883-.046L11.181 9.29l-1.47-1.313c-.005-.004-.009-.009-.009-.013a.947.947 0 0 0-.102-.088L3.619 2.524a.623.623 0 0 0-.883.051.622.622 0 0 0 .051.882l5.528 4.941-5.505 5.154a.627.627 0 0 0 .855.916L9.253 9.24l1.516 1.354a.625.625 0 0 0 .832-.005l1.558-1.396 5.556 5.278a.626.626 0 0 0 .883-.023.627.627 0 0 0-.023-.883l-5.487-5.208z"/></symbol><symbol viewBox="0 0 17 17" id="icon-time" xmlns="http://www.w3.org/2000/svg"><path d="M8.5 0A8.5 8.5 0 1 0 17 8.5 8.51 8.51 0 0 0 8.5 0Zm.365 16.253v-1.496a.365.365 0 0 0-.73 0v1.496A7.767 7.767 0 0 1 .748 8.865h1.495a.365.365 0 0 0 0-.73H.748A7.767 7.767 0 0 1 8.135.748v1.495a.365.365 0 0 0 .73 0V.748a7.767 7.767 0 0 1 7.388 7.387h-1.496a.365.365 0 0 0 0 .73h1.499a7.767 7.767 0 0 1-7.391 7.388Z"/><path d="m12.347 11.891-3.482-3.54V4.67a.365.365 0 0 0-.73 0V8.5c0 .096.039.187.106.255l3.585 3.647a.365.365 0 0 0 .521-.51Z"/></symbol></svg>